<svg xmlns="http://www.w3.org/2000/svg" width="940" height="470" viewBox="0 0 940 470" role="img"><rect width="940" height="470" fill="white"/><g font-family="sans-serif" fill="#253143"><text x="24" y="34" font-size="22">同一句指令：末层文字后缀 K/V 是否改变？</text><text x="24" y="62" font-size="15">每格＝一次真实去噪，与该指令的第一份捕获逐字节比较。蓝色＝完全相同。</text><text x="24" y="110" font-size="15">牛奶盒 · 12厘米 · 噪声195</text><rect x="330" y="90" width="15" height="24" fill="#2862ab"><title>milk_box，12厘米，噪声195，去噪0，K/V逐字节相同=True</title></rect><rect x="348" y="90" width="15" height="24" fill="#2862ab"><title>milk_box，12厘米，噪声195，去噪1，K/V逐字节相同=True</title></rect><rect x="366" y="90" width="15" height="24" fill="#2862ab"><title>milk_box，12厘米，噪声195，去噪2，K/V逐字节相同=True</title></rect><rect x="384" y="90" width="15" height="24" fill="#2862ab"><title>milk_box，12厘米，噪声195，去噪3，K/V逐字节相同=True</title></rect><rect x="402" y="90" width="15" height="24" fill="#2862ab"><title>milk_box，12厘米，噪声195，去噪4，K/V逐字节相同=True</title></rect><rect x="420" y="90" width="15" height="24" fill="#2862ab"><title>milk_box，12厘米，噪声195，去噪5，K/V逐字节相同=True</title></rect><rect x="438" y="90" width="15" height="24" fill="#2862ab"><title>milk_box，12厘米，噪声195，去噪6，K/V逐字节相同=True</title></rect><rect x="456" y="90" width="15" height="24" fill="#2862ab"><title>milk_box，12厘米，噪声195，去噪7，K/V逐字节相同=True</title></rect><rect x="474" y="90" width="15" height="24" fill="#2862ab"><title>milk_box，12厘米，噪声195，去噪8，K/V逐字节相同=True</title></rect><rect x="492" y="90" width="15" height="24" fill="#2862ab"><title>milk_box，12厘米，噪声195，去噪9，K/V逐字节相同=True</title></rect><rect x="510" y="90" width="15" height="24" fill="#2862ab"><title>milk_box，12厘米，噪声195，去噪10，K/V逐字节相同=True</title></rect><rect x="528" y="90" width="15" height="24" fill="#2862ab"><title>milk_box，12厘米，噪声195，去噪11，K/V逐字节相同=True</title></rect><rect x="546" y="90" width="15" height="24" fill="#2862ab"><title>milk_box，12厘米，噪声195，去噪12，K/V逐字节相同=True</title></rect><rect x="564" y="90" width="15" height="24" fill="#2862ab"><title>milk_box，12厘米，噪声195，去噪13，K/V逐字节相同=True</title></rect><rect x="582" y="90" width="15" height="24" fill="#2862ab"><title>milk_box，12厘米，噪声195，去噪14，K/V逐字节相同=True</title></rect><rect x="600" y="90" width="15" height="24" fill="#2862ab"><title>milk_box，12厘米，噪声195，去噪15，K/V逐字节相同=True</title></rect><rect x="618" y="90" width="15" height="24" fill="#2862ab"><title>milk_box，12厘米，噪声195，去噪16，K/V逐字节相同=True</title></rect><rect x="636" y="90" width="15" height="24" fill="#2862ab"><title>milk_box，12厘米，噪声195，去噪17，K/V逐字节相同=True</title></rect><rect x="654" y="90" width="15" height="24" fill="#2862ab"><title>milk_box，12厘米，噪声195，去噪18，K/V逐字节相同=True</title></rect><rect x="672" y="90" width="15" height="24" fill="#2862ab"><title>milk_box，12厘米，噪声195，去噪19，K/V逐字节相同=True</title></rect><rect x="690" y="90" width="15" height="24" fill="#2862ab"><title>milk_box，12厘米，噪声195，去噪20，K/V逐字节相同=True</title></rect><rect x="708" y="90" width="15" height="24" fill="#2862ab"><title>milk_box，12厘米，噪声195，去噪21，K/V逐字节相同=True</title></rect><rect x="726" y="90" width="15" height="24" fill="#2862ab"><title>milk_box，12厘米，噪声195，去噪22，K/V逐字节相同=True</title></rect><rect x="744" y="90" width="15" height="24" fill="#2862ab"><title>milk_box，12厘米，噪声195，去噪23，K/V逐字节相同=True</title></rect><rect x="762" y="90" width="15" height="24" fill="#2862ab"><title>milk_box，12厘米，噪声195，去噪24，K/V逐字节相同=True</title></rect><rect x="780" y="90" width="15" height="24" fill="#2862ab"><title>milk_box，12厘米，噪声195，去噪25，K/V逐字节相同=True</title></rect><rect x="798" y="90" width="15" height="24" fill="#2862ab"><title>milk_box，12厘米，噪声195，去噪26，K/V逐字节相同=True</title></rect><rect x="816" y="90" width="15" height="24" fill="#2862ab"><title>milk_box，12厘米，噪声195，去噪27，K/V逐字节相同=True</title></rect><rect x="834" y="90" width="15" height="24" fill="#2862ab"><title>milk_box，12厘米，噪声195，去噪28，K/V逐字节相同=True</title></rect><rect x="852" y="90" width="15" height="24" fill="#2862ab"><title>milk_box，12厘米，噪声195，去噪29，K/V逐字节相同=True</title></rect><text x="24" y="144" font-size="15">牛奶盒 · 12厘米 · 噪声198</text><rect x="330" y="124" width="15" height="24" fill="#2862ab"><title>milk_box，12厘米，噪声198，去噪0，K/V逐字节相同=True</title></rect><rect x="348" y="124" width="15" height="24" fill="#2862ab"><title>milk_box，12厘米，噪声198，去噪1，K/V逐字节相同=True</title></rect><rect x="366" y="124" width="15" height="24" fill="#2862ab"><title>milk_box，12厘米，噪声198，去噪2，K/V逐字节相同=True</title></rect><rect x="384" y="124" width="15" height="24" fill="#2862ab"><title>milk_box，12厘米，噪声198，去噪3，K/V逐字节相同=True</title></rect><rect x="402" y="124" width="15" height="24" fill="#2862ab"><title>milk_box，12厘米，噪声198，去噪4，K/V逐字节相同=True</title></rect><rect x="420" y="124" width="15" height="24" fill="#2862ab"><title>milk_box，12厘米，噪声198，去噪5，K/V逐字节相同=True</title></rect><rect x="438" y="124" width="15" height="24" fill="#2862ab"><title>milk_box，12厘米，噪声198，去噪6，K/V逐字节相同=True</title></rect><rect x="456" y="124" width="15" height="24" fill="#2862ab"><title>milk_box，12厘米，噪声198，去噪7，K/V逐字节相同=True</title></rect><rect x="474" y="124" width="15" height="24" fill="#2862ab"><title>milk_box，12厘米，噪声198，去噪8，K/V逐字节相同=True</title></rect><rect x="492" y="124" width="15" height="24" fill="#2862ab"><title>milk_box，12厘米，噪声198，去噪9，K/V逐字节相同=True</title></rect><rect x="510" y="124" width="15" height="24" fill="#2862ab"><title>milk_box，12厘米，噪声198，去噪10，K/V逐字节相同=True</title></rect><rect x="528" y="124" width="15" height="24" fill="#2862ab"><title>milk_box，12厘米，噪声198，去噪11，K/V逐字节相同=True</title></rect><rect x="546" y="124" width="15" height="24" fill="#2862ab"><title>milk_box，12厘米，噪声198，去噪12，K/V逐字节相同=True</title></rect><rect x="564" y="124" width="15" height="24" fill="#2862ab"><title>milk_box，12厘米，噪声198，去噪13，K/V逐字节相同=True</title></rect><rect x="582" y="124" width="15" height="24" fill="#2862ab"><title>milk_box，12厘米，噪声198，去噪14，K/V逐字节相同=True</title></rect><rect x="600" y="124" width="15" height="24" fill="#2862ab"><title>milk_box，12厘米，噪声198，去噪15，K/V逐字节相同=True</title></rect><rect x="618" y="124" width="15" height="24" fill="#2862ab"><title>milk_box，12厘米，噪声198，去噪16，K/V逐字节相同=True</title></rect><rect x="636" y="124" width="15" height="24" fill="#2862ab"><title>milk_box，12厘米，噪声198，去噪17，K/V逐字节相同=True</title></rect><rect x="654" y="124" width="15" height="24" fill="#2862ab"><title>milk_box，12厘米，噪声198，去噪18，K/V逐字节相同=True</title></rect><rect x="672" y="124" width="15" height="24" fill="#2862ab"><title>milk_box，12厘米，噪声198，去噪19，K/V逐字节相同=True</title></rect><rect x="690" y="124" width="15" height="24" fill="#2862ab"><title>milk_box，12厘米，噪声198，去噪20，K/V逐字节相同=True</title></rect><rect x="708" y="124" width="15" height="24" fill="#2862ab"><title>milk_box，12厘米，噪声198，去噪21，K/V逐字节相同=True</title></rect><rect x="726" y="124" width="15" height="24" fill="#2862ab"><title>milk_box，12厘米，噪声198，去噪22，K/V逐字节相同=True</title></rect><rect x="744" y="124" width="15" height="24" fill="#2862ab"><title>milk_box，12厘米，噪声198，去噪23，K/V逐字节相同=True</title></rect><rect x="762" y="124" width="15" height="24" fill="#2862ab"><title>milk_box，12厘米，噪声198，去噪24，K/V逐字节相同=True</title></rect><rect x="780" y="124" width="15" height="24" fill="#2862ab"><title>milk_box，12厘米，噪声198，去噪25，K/V逐字节相同=True</title></rect><rect x="798" y="124" width="15" height="24" fill="#2862ab"><title>milk_box，12厘米，噪声198，去噪26，K/V逐字节相同=True</title></rect><rect x="816" y="124" width="15" height="24" fill="#2862ab"><title>milk_box，12厘米，噪声198，去噪27，K/V逐字节相同=True</title></rect><rect x="834" y="124" width="15" height="24" fill="#2862ab"><title>milk_box，12厘米，噪声198，去噪28，K/V逐字节相同=True</title></rect><rect x="852" y="124" width="15" height="24" fill="#2862ab"><title>milk_box，12厘米，噪声198，去噪29，K/V逐字节相同=True</title></rect><text x="24" y="178" font-size="15">牛奶盒 · 15厘米 · 噪声195</text><rect x="330" y="158" width="15" height="24" fill="#2862ab"><title>milk_box，15厘米，噪声195，去噪0，K/V逐字节相同=True</title></rect><rect x="348" y="158" width="15" height="24" fill="#2862ab"><title>milk_box，15厘米，噪声195，去噪1，K/V逐字节相同=True</title></rect><rect x="366" y="158" width="15" height="24" fill="#2862ab"><title>milk_box，15厘米，噪声195，去噪2，K/V逐字节相同=True</title></rect><rect x="384" y="158" width="15" height="24" fill="#2862ab"><title>milk_box，15厘米，噪声195，去噪3，K/V逐字节相同=True</title></rect><rect x="402" y="158" width="15" height="24" fill="#2862ab"><title>milk_box，15厘米，噪声195，去噪4，K/V逐字节相同=True</title></rect><rect x="420" y="158" width="15" height="24" fill="#2862ab"><title>milk_box，15厘米，噪声195，去噪5，K/V逐字节相同=True</title></rect><rect x="438" y="158" width="15" height="24" fill="#2862ab"><title>milk_box，15厘米，噪声195，去噪6，K/V逐字节相同=True</title></rect><rect x="456" y="158" width="15" height="24" fill="#2862ab"><title>milk_box，15厘米，噪声195，去噪7，K/V逐字节相同=True</title></rect><rect x="474" y="158" width="15" height="24" fill="#2862ab"><title>milk_box，15厘米，噪声195，去噪8，K/V逐字节相同=True</title></rect><rect x="492" y="158" width="15" height="24" fill="#2862ab"><title>milk_box，15厘米，噪声195，去噪9，K/V逐字节相同=True</title></rect><rect x="510" y="158" width="15" height="24" fill="#2862ab"><title>milk_box，15厘米，噪声195，去噪10，K/V逐字节相同=True</title></rect><rect x="528" y="158" width="15" height="24" fill="#2862ab"><title>milk_box，15厘米，噪声195，去噪11，K/V逐字节相同=True</title></rect><rect x="546" y="158" width="15" height="24" fill="#2862ab"><title>milk_box，15厘米，噪声195，去噪12，K/V逐字节相同=True</title></rect><rect x="564" y="158" width="15" height="24" fill="#2862ab"><title>milk_box，15厘米，噪声195，去噪13，K/V逐字节相同=True</title></rect><rect x="582" y="158" width="15" height="24" fill="#2862ab"><title>milk_box，15厘米，噪声195，去噪14，K/V逐字节相同=True</title></rect><rect x="600" y="158" width="15" height="24" fill="#2862ab"><title>milk_box，15厘米，噪声195，去噪15，K/V逐字节相同=True</title></rect><rect x="618" y="158" width="15" height="24" fill="#2862ab"><title>milk_box，15厘米，噪声195，去噪16，K/V逐字节相同=True</title></rect><rect x="636" y="158" width="15" height="24" fill="#2862ab"><title>milk_box，15厘米，噪声195，去噪17，K/V逐字节相同=True</title></rect><rect x="654" y="158" width="15" height="24" fill="#2862ab"><title>milk_box，15厘米，噪声195，去噪18，K/V逐字节相同=True</title></rect><rect x="672" y="158" width="15" height="24" fill="#2862ab"><title>milk_box，15厘米，噪声195，去噪19，K/V逐字节相同=True</title></rect><rect x="690" y="158" width="15" height="24" fill="#2862ab"><title>milk_box，15厘米，噪声195，去噪20，K/V逐字节相同=True</title></rect><rect x="708" y="158" width="15" height="24" fill="#2862ab"><title>milk_box，15厘米，噪声195，去噪21，K/V逐字节相同=True</title></rect><rect x="726" y="158" width="15" height="24" fill="#2862ab"><title>milk_box，15厘米，噪声195，去噪22，K/V逐字节相同=True</title></rect><rect x="744" y="158" width="15" height="24" fill="#2862ab"><title>milk_box，15厘米，噪声195，去噪23，K/V逐字节相同=True</title></rect><rect x="762" y="158" width="15" height="24" fill="#2862ab"><title>milk_box，15厘米，噪声195，去噪24，K/V逐字节相同=True</title></rect><rect x="780" y="158" width="15" height="24" fill="#2862ab"><title>milk_box，15厘米，噪声195，去噪25，K/V逐字节相同=True</title></rect><rect x="798" y="158" width="15" height="24" fill="#2862ab"><title>milk_box，15厘米，噪声195，去噪26，K/V逐字节相同=True</title></rect><rect x="816" y="158" width="15" height="24" fill="#2862ab"><title>milk_box，15厘米，噪声195，去噪27，K/V逐字节相同=True</title></rect><rect x="834" y="158" width="15" height="24" fill="#2862ab"><title>milk_box，15厘米，噪声195，去噪28，K/V逐字节相同=True</title></rect><rect x="852" y="158" width="15" height="24" fill="#2862ab"><title>milk_box，15厘米，噪声195，去噪29，K/V逐字节相同=True</title></rect><text x="24" y="212" font-size="15">牛奶盒 · 15厘米 · 噪声198</text><rect x="330" y="192" width="15" height="24" fill="#2862ab"><title>milk_box，15厘米，噪声198，去噪0，K/V逐字节相同=True</title></rect><rect x="348" y="192" width="15" height="24" fill="#2862ab"><title>milk_box，15厘米，噪声198，去噪1，K/V逐字节相同=True</title></rect><rect x="366" y="192" width="15" height="24" fill="#2862ab"><title>milk_box，15厘米，噪声198，去噪2，K/V逐字节相同=True</title></rect><rect x="384" y="192" width="15" height="24" fill="#2862ab"><title>milk_box，15厘米，噪声198，去噪3，K/V逐字节相同=True</title></rect><rect x="402" y="192" width="15" height="24" fill="#2862ab"><title>milk_box，15厘米，噪声198，去噪4，K/V逐字节相同=True</title></rect><rect x="420" y="192" width="15" height="24" fill="#2862ab"><title>milk_box，15厘米，噪声198，去噪5，K/V逐字节相同=True</title></rect><rect x="438" y="192" width="15" height="24" fill="#2862ab"><title>milk_box，15厘米，噪声198，去噪6，K/V逐字节相同=True</title></rect><rect x="456" y="192" width="15" height="24" fill="#2862ab"><title>milk_box，15厘米，噪声198，去噪7，K/V逐字节相同=True</title></rect><rect x="474" y="192" width="15" height="24" fill="#2862ab"><title>milk_box，15厘米，噪声198，去噪8，K/V逐字节相同=True</title></rect><rect x="492" y="192" width="15" height="24" fill="#2862ab"><title>milk_box，15厘米，噪声198，去噪9，K/V逐字节相同=True</title></rect><rect x="510" y="192" width="15" height="24" fill="#2862ab"><title>milk_box，15厘米，噪声198，去噪10，K/V逐字节相同=True</title></rect><rect x="528" y="192" width="15" height="24" fill="#2862ab"><title>milk_box，15厘米，噪声198，去噪11，K/V逐字节相同=True</title></rect><rect x="546" y="192" width="15" height="24" fill="#2862ab"><title>milk_box，15厘米，噪声198，去噪12，K/V逐字节相同=True</title></rect><rect x="564" y="192" width="15" height="24" fill="#2862ab"><title>milk_box，15厘米，噪声198，去噪13，K/V逐字节相同=True</title></rect><rect x="582" y="192" width="15" height="24" fill="#2862ab"><title>milk_box，15厘米，噪声198，去噪14，K/V逐字节相同=True</title></rect><rect x="600" y="192" width="15" height="24" fill="#2862ab"><title>milk_box，15厘米，噪声198，去噪15，K/V逐字节相同=True</title></rect><rect x="618" y="192" width="15" height="24" fill="#2862ab"><title>milk_box，15厘米，噪声198，去噪16，K/V逐字节相同=True</title></rect><rect x="636" y="192" width="15" height="24" fill="#2862ab"><title>milk_box，15厘米，噪声198，去噪17，K/V逐字节相同=True</title></rect><rect x="654" y="192" width="15" height="24" fill="#2862ab"><title>milk_box，15厘米，噪声198，去噪18，K/V逐字节相同=True</title></rect><rect x="672" y="192" width="15" height="24" fill="#2862ab"><title>milk_box，15厘米，噪声198，去噪19，K/V逐字节相同=True</title></rect><rect x="690" y="192" width="15" height="24" fill="#2862ab"><title>milk_box，15厘米，噪声198，去噪20，K/V逐字节相同=True</title></rect><rect x="708" y="192" width="15" height="24" fill="#2862ab"><title>milk_box，15厘米，噪声198，去噪21，K/V逐字节相同=True</title></rect><rect x="726" y="192" width="15" height="24" fill="#2862ab"><title>milk_box，15厘米，噪声198，去噪22，K/V逐字节相同=True</title></rect><rect x="744" y="192" width="15" height="24" fill="#2862ab"><title>milk_box，15厘米，噪声198，去噪23，K/V逐字节相同=True</title></rect><rect x="762" y="192" width="15" height="24" fill="#2862ab"><title>milk_box，15厘米，噪声198，去噪24，K/V逐字节相同=True</title></rect><rect x="780" y="192" width="15" height="24" fill="#2862ab"><title>milk_box，15厘米，噪声198，去噪25，K/V逐字节相同=True</title></rect><rect x="798" y="192" width="15" height="24" fill="#2862ab"><title>milk_box，15厘米，噪声198，去噪26，K/V逐字节相同=True</title></rect><rect x="816" y="192" width="15" height="24" fill="#2862ab"><title>milk_box，15厘米，噪声198，去噪27，K/V逐字节相同=True</title></rect><rect x="834" y="192" width="15" height="24" fill="#2862ab"><title>milk_box，15厘米，噪声198，去噪28，K/V逐字节相同=True</title></rect><rect x="852" y="192" width="15" height="24" fill="#2862ab"><title>milk_box，15厘米，噪声198，去噪29，K/V逐字节相同=True</title></rect><text x="24" y="278" font-size="15">奶酪盒 · 12厘米 · 噪声195</text><rect x="330" y="258" width="15" height="24" fill="#2862ab"><title>cream_cheese，12厘米，噪声195，去噪0，K/V逐字节相同=True</title></rect><rect x="348" y="258" width="15" height="24" fill="#2862ab"><title>cream_cheese，12厘米，噪声195，去噪1，K/V逐字节相同=True</title></rect><rect x="366" y="258" width="15" height="24" fill="#2862ab"><title>cream_cheese，12厘米，噪声195，去噪2，K/V逐字节相同=True</title></rect><rect x="384" y="258" width="15" height="24" fill="#2862ab"><title>cream_cheese，12厘米，噪声195，去噪3，K/V逐字节相同=True</title></rect><rect x="402" y="258" width="15" height="24" fill="#2862ab"><title>cream_cheese，12厘米，噪声195，去噪4，K/V逐字节相同=True</title></rect><rect x="420" y="258" width="15" height="24" fill="#2862ab"><title>cream_cheese，12厘米，噪声195，去噪5，K/V逐字节相同=True</title></rect><rect x="438" y="258" width="15" height="24" fill="#2862ab"><title>cream_cheese，12厘米，噪声195，去噪6，K/V逐字节相同=True</title></rect><rect x="456" y="258" width="15" height="24" fill="#2862ab"><title>cream_cheese，12厘米，噪声195，去噪7，K/V逐字节相同=True</title></rect><rect x="474" y="258" width="15" height="24" fill="#2862ab"><title>cream_cheese，12厘米，噪声195，去噪8，K/V逐字节相同=True</title></rect><rect x="492" y="258" width="15" height="24" fill="#2862ab"><title>cream_cheese，12厘米，噪声195，去噪9，K/V逐字节相同=True</title></rect><rect x="510" y="258" width="15" height="24" fill="#2862ab"><title>cream_cheese，12厘米，噪声195，去噪10，K/V逐字节相同=True</title></rect><rect x="528" y="258" width="15" height="24" fill="#2862ab"><title>cream_cheese，12厘米，噪声195，去噪11，K/V逐字节相同=True</title></rect><rect x="546" y="258" width="15" height="24" fill="#2862ab"><title>cream_cheese，12厘米，噪声195，去噪12，K/V逐字节相同=True</title></rect><rect x="564" y="258" width="15" height="24" fill="#2862ab"><title>cream_cheese，12厘米，噪声195，去噪13，K/V逐字节相同=True</title></rect><rect x="582" y="258" width="15" height="24" fill="#2862ab"><title>cream_cheese，12厘米，噪声195，去噪14，K/V逐字节相同=True</title></rect><rect x="600" y="258" width="15" height="24" fill="#2862ab"><title>cream_cheese，12厘米，噪声195，去噪15，K/V逐字节相同=True</title></rect><rect x="618" y="258" width="15" height="24" fill="#2862ab"><title>cream_cheese，12厘米，噪声195，去噪16，K/V逐字节相同=True</title></rect><rect x="636" y="258" width="15" height="24" fill="#2862ab"><title>cream_cheese，12厘米，噪声195，去噪17，K/V逐字节相同=True</title></rect><rect x="654" y="258" width="15" height="24" fill="#2862ab"><title>cream_cheese，12厘米，噪声195，去噪18，K/V逐字节相同=True</title></rect><rect x="672" y="258" width="15" height="24" fill="#2862ab"><title>cream_cheese，12厘米，噪声195，去噪19，K/V逐字节相同=True</title></rect><rect x="690" y="258" width="15" height="24" fill="#2862ab"><title>cream_cheese，12厘米，噪声195，去噪20，K/V逐字节相同=True</title></rect><rect x="708" y="258" width="15" height="24" fill="#2862ab"><title>cream_cheese，12厘米，噪声195，去噪21，K/V逐字节相同=True</title></rect><rect x="726" y="258" width="15" height="24" fill="#2862ab"><title>cream_cheese，12厘米，噪声195，去噪22，K/V逐字节相同=True</title></rect><rect x="744" y="258" width="15" height="24" fill="#2862ab"><title>cream_cheese，12厘米，噪声195，去噪23，K/V逐字节相同=True</title></rect><rect x="762" y="258" width="15" height="24" fill="#2862ab"><title>cream_cheese，12厘米，噪声195，去噪24，K/V逐字节相同=True</title></rect><rect x="780" y="258" width="15" height="24" fill="#2862ab"><title>cream_cheese，12厘米，噪声195，去噪25，K/V逐字节相同=True</title></rect><rect x="798" y="258" width="15" height="24" fill="#2862ab"><title>cream_cheese，12厘米，噪声195，去噪26，K/V逐字节相同=True</title></rect><rect x="816" y="258" width="15" height="24" fill="#2862ab"><title>cream_cheese，12厘米，噪声195，去噪27，K/V逐字节相同=True</title></rect><rect x="834" y="258" width="15" height="24" fill="#2862ab"><title>cream_cheese，12厘米，噪声195，去噪28，K/V逐字节相同=True</title></rect><rect x="852" y="258" width="15" height="24" fill="#2862ab"><title>cream_cheese，12厘米，噪声195，去噪29，K/V逐字节相同=True</title></rect><text x="24" y="312" font-size="15">奶酪盒 · 12厘米 · 噪声198</text><rect x="330" y="292" width="15" height="24" fill="#2862ab"><title>cream_cheese，12厘米，噪声198，去噪0，K/V逐字节相同=True</title></rect><rect x="348" y="292" width="15" height="24" fill="#2862ab"><title>cream_cheese，12厘米，噪声198，去噪1，K/V逐字节相同=True</title></rect><rect x="366" y="292" width="15" height="24" fill="#2862ab"><title>cream_cheese，12厘米，噪声198，去噪2，K/V逐字节相同=True</title></rect><rect x="384" y="292" width="15" height="24" fill="#2862ab"><title>cream_cheese，12厘米，噪声198，去噪3，K/V逐字节相同=True</title></rect><rect x="402" y="292" width="15" height="24" fill="#2862ab"><title>cream_cheese，12厘米，噪声198，去噪4，K/V逐字节相同=True</title></rect><rect x="420" y="292" width="15" height="24" fill="#2862ab"><title>cream_cheese，12厘米，噪声198，去噪5，K/V逐字节相同=True</title></rect><rect x="438" y="292" width="15" height="24" fill="#2862ab"><title>cream_cheese，12厘米，噪声198，去噪6，K/V逐字节相同=True</title></rect><rect x="456" y="292" width="15" height="24" fill="#2862ab"><title>cream_cheese，12厘米，噪声198，去噪7，K/V逐字节相同=True</title></rect><rect x="474" y="292" width="15" height="24" fill="#2862ab"><title>cream_cheese，12厘米，噪声198，去噪8，K/V逐字节相同=True</title></rect><rect x="492" y="292" width="15" height="24" fill="#2862ab"><title>cream_cheese，12厘米，噪声198，去噪9，K/V逐字节相同=True</title></rect><rect x="510" y="292" width="15" height="24" fill="#2862ab"><title>cream_cheese，12厘米，噪声198，去噪10，K/V逐字节相同=True</title></rect><rect x="528" y="292" width="15" height="24" fill="#2862ab"><title>cream_cheese，12厘米，噪声198，去噪11，K/V逐字节相同=True</title></rect><rect x="546" y="292" width="15" height="24" fill="#2862ab"><title>cream_cheese，12厘米，噪声198，去噪12，K/V逐字节相同=True</title></rect><rect x="564" y="292" width="15" height="24" fill="#2862ab"><title>cream_cheese，12厘米，噪声198，去噪13，K/V逐字节相同=True</title></rect><rect x="582" y="292" width="15" height="24" fill="#2862ab"><title>cream_cheese，12厘米，噪声198，去噪14，K/V逐字节相同=True</title></rect><rect x="600" y="292" width="15" height="24" fill="#2862ab"><title>cream_cheese，12厘米，噪声198，去噪15，K/V逐字节相同=True</title></rect><rect x="618" y="292" width="15" height="24" fill="#2862ab"><title>cream_cheese，12厘米，噪声198，去噪16，K/V逐字节相同=True</title></rect><rect x="636" y="292" width="15" height="24" fill="#2862ab"><title>cream_cheese，12厘米，噪声198，去噪17，K/V逐字节相同=True</title></rect><rect x="654" y="292" width="15" height="24" fill="#2862ab"><title>cream_cheese，12厘米，噪声198，去噪18，K/V逐字节相同=True</title></rect><rect x="672" y="292" width="15" height="24" fill="#2862ab"><title>cream_cheese，12厘米，噪声198，去噪19，K/V逐字节相同=True</title></rect><rect x="690" y="292" width="15" height="24" fill="#2862ab"><title>cream_cheese，12厘米，噪声198，去噪20，K/V逐字节相同=True</title></rect><rect x="708" y="292" width="15" height="24" fill="#2862ab"><title>cream_cheese，12厘米，噪声198，去噪21，K/V逐字节相同=True</title></rect><rect x="726" y="292" width="15" height="24" fill="#2862ab"><title>cream_cheese，12厘米，噪声198，去噪22，K/V逐字节相同=True</title></rect><rect x="744" y="292" width="15" height="24" fill="#2862ab"><title>cream_cheese，12厘米，噪声198，去噪23，K/V逐字节相同=True</title></rect><rect x="762" y="292" width="15" height="24" fill="#2862ab"><title>cream_cheese，12厘米，噪声198，去噪24，K/V逐字节相同=True</title></rect><rect x="780" y="292" width="15" height="24" fill="#2862ab"><title>cream_cheese，12厘米，噪声198，去噪25，K/V逐字节相同=True</title></rect><rect x="798" y="292" width="15" height="24" fill="#2862ab"><title>cream_cheese，12厘米，噪声198，去噪26，K/V逐字节相同=True</title></rect><rect x="816" y="292" width="15" height="24" fill="#2862ab"><title>cream_cheese，12厘米，噪声198，去噪27，K/V逐字节相同=True</title></rect><rect x="834" y="292" width="15" height="24" fill="#2862ab"><title>cream_cheese，12厘米，噪声198，去噪28，K/V逐字节相同=True</title></rect><rect x="852" y="292" width="15" height="24" fill="#2862ab"><title>cream_cheese，12厘米，噪声198，去噪29，K/V逐字节相同=True</title></rect><text x="24" y="346" font-size="15">奶酪盒 · 15厘米 · 噪声195</text><rect x="330" y="326" width="15" height="24" fill="#2862ab"><title>cream_cheese，15厘米，噪声195，去噪0，K/V逐字节相同=True</title></rect><rect x="348" y="326" width="15" height="24" fill="#2862ab"><title>cream_cheese，15厘米，噪声195，去噪1，K/V逐字节相同=True</title></rect><rect x="366" y="326" width="15" height="24" fill="#2862ab"><title>cream_cheese，15厘米，噪声195，去噪2，K/V逐字节相同=True</title></rect><rect x="384" y="326" width="15" height="24" fill="#2862ab"><title>cream_cheese，15厘米，噪声195，去噪3，K/V逐字节相同=True</title></rect><rect x="402" y="326" width="15" height="24" fill="#2862ab"><title>cream_cheese，15厘米，噪声195，去噪4，K/V逐字节相同=True</title></rect><rect x="420" y="326" width="15" height="24" fill="#2862ab"><title>cream_cheese，15厘米，噪声195，去噪5，K/V逐字节相同=True</title></rect><rect x="438" y="326" width="15" height="24" fill="#2862ab"><title>cream_cheese，15厘米，噪声195，去噪6，K/V逐字节相同=True</title></rect><rect x="456" y="326" width="15" height="24" fill="#2862ab"><title>cream_cheese，15厘米，噪声195，去噪7，K/V逐字节相同=True</title></rect><rect x="474" y="326" width="15" height="24" fill="#2862ab"><title>cream_cheese，15厘米，噪声195，去噪8，K/V逐字节相同=True</title></rect><rect x="492" y="326" width="15" height="24" fill="#2862ab"><title>cream_cheese，15厘米，噪声195，去噪9，K/V逐字节相同=True</title></rect><rect x="510" y="326" width="15" height="24" fill="#2862ab"><title>cream_cheese，15厘米，噪声195，去噪10，K/V逐字节相同=True</title></rect><rect x="528" y="326" width="15" height="24" fill="#2862ab"><title>cream_cheese，15厘米，噪声195，去噪11，K/V逐字节相同=True</title></rect><rect x="546" y="326" width="15" height="24" fill="#2862ab"><title>cream_cheese，15厘米，噪声195，去噪12，K/V逐字节相同=True</title></rect><rect x="564" y="326" width="15" height="24" fill="#2862ab"><title>cream_cheese，15厘米，噪声195，去噪13，K/V逐字节相同=True</title></rect><rect x="582" y="326" width="15" height="24" fill="#2862ab"><title>cream_cheese，15厘米，噪声195，去噪14，K/V逐字节相同=True</title></rect><rect x="600" y="326" width="15" height="24" fill="#2862ab"><title>cream_cheese，15厘米，噪声195，去噪15，K/V逐字节相同=True</title></rect><rect x="618" y="326" width="15" height="24" fill="#2862ab"><title>cream_cheese，15厘米，噪声195，去噪16，K/V逐字节相同=True</title></rect><rect x="636" y="326" width="15" height="24" fill="#2862ab"><title>cream_cheese，15厘米，噪声195，去噪17，K/V逐字节相同=True</title></rect><rect x="654" y="326" width="15" height="24" fill="#2862ab"><title>cream_cheese，15厘米，噪声195，去噪18，K/V逐字节相同=True</title></rect><rect x="672" y="326" width="15" height="24" fill="#2862ab"><title>cream_cheese，15厘米，噪声195，去噪19，K/V逐字节相同=True</title></rect><rect x="690" y="326" width="15" height="24" fill="#2862ab"><title>cream_cheese，15厘米，噪声195，去噪20，K/V逐字节相同=True</title></rect><rect x="708" y="326" width="15" height="24" fill="#2862ab"><title>cream_cheese，15厘米，噪声195，去噪21，K/V逐字节相同=True</title></rect><rect x="726" y="326" width="15" height="24" fill="#2862ab"><title>cream_cheese，15厘米，噪声195，去噪22，K/V逐字节相同=True</title></rect><rect x="744" y="326" width="15" height="24" fill="#2862ab"><title>cream_cheese，15厘米，噪声195，去噪23，K/V逐字节相同=True</title></rect><rect x="762" y="326" width="15" height="24" fill="#2862ab"><title>cream_cheese，15厘米，噪声195，去噪24，K/V逐字节相同=True</title></rect><rect x="780" y="326" width="15" height="24" fill="#2862ab"><title>cream_cheese，15厘米，噪声195，去噪25，K/V逐字节相同=True</title></rect><rect x="798" y="326" width="15" height="24" fill="#2862ab"><title>cream_cheese，15厘米，噪声195，去噪26，K/V逐字节相同=True</title></rect><rect x="816" y="326" width="15" height="24" fill="#2862ab"><title>cream_cheese，15厘米，噪声195，去噪27，K/V逐字节相同=True</title></rect><rect x="834" y="326" width="15" height="24" fill="#2862ab"><title>cream_cheese，15厘米，噪声195，去噪28，K/V逐字节相同=True</title></rect><rect x="852" y="326" width="15" height="24" fill="#2862ab"><title>cream_cheese，15厘米，噪声195，去噪29，K/V逐字节相同=True</title></rect><text x="24" y="380" font-size="15">奶酪盒 · 15厘米 · 噪声198</text><rect x="330" y="360" width="15" height="24" fill="#2862ab"><title>cream_cheese，15厘米，噪声198，去噪0，K/V逐字节相同=True</title></rect><rect x="348" y="360" width="15" height="24" fill="#2862ab"><title>cream_cheese，15厘米，噪声198，去噪1，K/V逐字节相同=True</title></rect><rect x="366" y="360" width="15" height="24" fill="#2862ab"><title>cream_cheese，15厘米，噪声198，去噪2，K/V逐字节相同=True</title></rect><rect x="384" y="360" width="15" height="24" fill="#2862ab"><title>cream_cheese，15厘米，噪声198，去噪3，K/V逐字节相同=True</title></rect><rect x="402" y="360" width="15" height="24" fill="#2862ab"><title>cream_cheese，15厘米，噪声198，去噪4，K/V逐字节相同=True</title></rect><rect x="420" y="360" width="15" height="24" fill="#2862ab"><title>cream_cheese，15厘米，噪声198，去噪5，K/V逐字节相同=True</title></rect><rect x="438" y="360" width="15" height="24" fill="#2862ab"><title>cream_cheese，15厘米，噪声198，去噪6，K/V逐字节相同=True</title></rect><rect x="456" y="360" width="15" height="24" fill="#2862ab"><title>cream_cheese，15厘米，噪声198，去噪7，K/V逐字节相同=True</title></rect><rect x="474" y="360" width="15" height="24" fill="#2862ab"><title>cream_cheese，15厘米，噪声198，去噪8，K/V逐字节相同=True</title></rect><rect x="492" y="360" width="15" height="24" fill="#2862ab"><title>cream_cheese，15厘米，噪声198，去噪9，K/V逐字节相同=True</title></rect><rect x="510" y="360" width="15" height="24" fill="#2862ab"><title>cream_cheese，15厘米，噪声198，去噪10，K/V逐字节相同=True</title></rect><rect x="528" y="360" width="15" height="24" fill="#2862ab"><title>cream_cheese，15厘米，噪声198，去噪11，K/V逐字节相同=True</title></rect><rect x="546" y="360" width="15" height="24" fill="#2862ab"><title>cream_cheese，15厘米，噪声198，去噪12，K/V逐字节相同=True</title></rect><rect x="564" y="360" width="15" height="24" fill="#2862ab"><title>cream_cheese，15厘米，噪声198，去噪13，K/V逐字节相同=True</title></rect><rect x="582" y="360" width="15" height="24" fill="#2862ab"><title>cream_cheese，15厘米，噪声198，去噪14，K/V逐字节相同=True</title></rect><rect x="600" y="360" width="15" height="24" fill="#2862ab"><title>cream_cheese，15厘米，噪声198，去噪15，K/V逐字节相同=True</title></rect><rect x="618" y="360" width="15" height="24" fill="#2862ab"><title>cream_cheese，15厘米，噪声198，去噪16，K/V逐字节相同=True</title></rect><rect x="636" y="360" width="15" height="24" fill="#2862ab"><title>cream_cheese，15厘米，噪声198，去噪17，K/V逐字节相同=True</title></rect><rect x="654" y="360" width="15" height="24" fill="#2862ab"><title>cream_cheese，15厘米，噪声198，去噪18，K/V逐字节相同=True</title></rect><rect x="672" y="360" width="15" height="24" fill="#2862ab"><title>cream_cheese，15厘米，噪声198，去噪19，K/V逐字节相同=True</title></rect><rect x="690" y="360" width="15" height="24" fill="#2862ab"><title>cream_cheese，15厘米，噪声198，去噪20，K/V逐字节相同=True</title></rect><rect x="708" y="360" width="15" height="24" fill="#2862ab"><title>cream_cheese，15厘米，噪声198，去噪21，K/V逐字节相同=True</title></rect><rect x="726" y="360" width="15" height="24" fill="#2862ab"><title>cream_cheese，15厘米，噪声198，去噪22，K/V逐字节相同=True</title></rect><rect x="744" y="360" width="15" height="24" fill="#2862ab"><title>cream_cheese，15厘米，噪声198，去噪23，K/V逐字节相同=True</title></rect><rect x="762" y="360" width="15" height="24" fill="#2862ab"><title>cream_cheese，15厘米，噪声198，去噪24，K/V逐字节相同=True</title></rect><rect x="780" y="360" width="15" height="24" fill="#2862ab"><title>cream_cheese，15厘米，噪声198，去噪25，K/V逐字节相同=True</title></rect><rect x="798" y="360" width="15" height="24" fill="#2862ab"><title>cream_cheese，15厘米，噪声198，去噪26，K/V逐字节相同=True</title></rect><rect x="816" y="360" width="15" height="24" fill="#2862ab"><title>cream_cheese，15厘米，噪声198，去噪27，K/V逐字节相同=True</title></rect><rect x="834" y="360" width="15" height="24" fill="#2862ab"><title>cream_cheese，15厘米，噪声198，去噪28，K/V逐字节相同=True</title></rect><rect x="852" y="360" width="15" height="24" fill="#2862ab"><title>cream_cheese，15厘米，噪声198，去噪29，K/V逐字节相同=True</title></rect><text x="330" y="398" font-size="14">去噪0</text><text x="815" y="398" font-size="14">去噪29</text><text x="24" y="433" font-size="17">牛奶盒：120/120相同；奶酪盒：120/120相同。两条不同指令之间的K/V则不同。</text><text x="24" y="457" font-size="14">仅检验L35保存的74行UND后缀，不代表全部网络或全部语言表示。</text></g></svg>